<?xml version="1.0" standalone="no"?><!DOCTYPE svg PUBLIC "-//W3C//DTD SVG 1.1//EN" "http://www.w3.org/Graphics/SVG/1.1/DTD/svg11.dtd" ><svg xmlns="http://www.w3.org/2000/svg"><metadata></metadata><defs><font id="FontForge 1.0 : TW-Kai : 2-6-2009" horiz-adv-x="1024"><font-face font-family="TW-Kai" font-weight="400" font-stretch="normal" units-per-em="1024" panose-1="2 1 6 4 0 1 1 1 1 1" ascent="822" descent="-205" x-height="1" bbox="47 -184 987 772" underline-thickness="50" underline-position="-154" unicode-range="U+5165-99ac" /><missing-glyph horiz-adv-x="1024"  /><glyph glyph-name="uni5165" unicode="&#x5165;" d="M473 396 l-12 -20 q-4 -8 -25 -40 l-36 -56 l-39 -51 q-22 -29 -44 -55 q-22 -28 -53 -56 q-30 -30 -67 -53 q-38 -24 -75 -41 q-37 -17 -43 -20 q-7 -4 -10 -4 l-14 -6 q-5 -2 -7 2 q-2 4 1 6 l11 10 q9 8 32 26 l39 31 q16 13 53 46 q37 33 54 51 q17 18 46 54 l47 60 q18 22 40 58 q22 36 33 59 q11 24 22 53 l6 17 q-11 16 -19 25 q-8 10 -21 18 q-13 8 -35 13 l-26 5 q-12 2 -15 8 q-3 6 -2 10 q2 5 14 7 q12 1 26 1 q21 0 38 -4 q17 -3 29 -10 q12 -8 27 -24 q14 -16 31 -42 l39 -67 q23 -40 48 -77 q25 -38 48 -69 q23 -31 53 -64 q30 -34 72 -65 q42 -32 80 -52 q38 -22 76 -40 q38 -18 50 -21 l20 -7 q14 -5 12 -12 q-2 -7 -11 -7 l-21 -1 l-36 -2 l-88 -2 q-56 -2 -72 5 q-18 7 -30 15 q-12 8 -27 28 q-16 20 -28 38 q-13 18 -43 66 q-30 49 -35 58 l-51 91 l-43 74 l-19 33 Z" /><glyph glyph-name="uni5175" unicode="&#x5175;" d="M339 191 l-40 273 q-10 64 -15 83 q-4 19 -9 29 q-6 10 -6 16 q-1 6 4 10 q6 4 14 4 q6 0 18 -2 q11 -4 25 -12 l26 -14 q45 17 76 30 q31 13 62 30 q31 18 57 36 q27 18 37 30 q9 11 15 12 q4 2 17 -3 q18 -8 35 -20 q18 -13 32 -27 q13 -14 11 -23 q-2 -7 -9 -12 q-8 -4 -21 -6 q-13 -1 -66 -15 l-68 -18 l-73 -20 l-104 -30 l12 -122 l255 53 q35 7 55 14 q20 7 28 7 q8 0 23 -4 q15 -3 29 -9 q14 -6 22 -13 q8 -6 8 -10 q0 -4 -4 -7 q-2 -3 -26 -5 l-148 -18 l32 -16 q16 -7 24 -15 q9 -7 11 -13 q2 -4 1 -8 q0 -3 -6 -12 q-7 -10 -12 -27 l-32 -125 l154 18 q14 2 36 6 q24 4 35 4 q13 0 46 -12 q34 -11 43 -23 q8 -11 6 -17 q-2 -6 -18 -7 q-15 -2 -38 -3 l-44 -1 l-59 2 q-15 0 -61 -2 q-46 -3 -120 -4 q-76 -1 -125 -4 q-49 -3 -98 -9 q-49 -5 -91 -12 q-43 -7 -50 -8 l-37 -8 q-53 -11 -61 -10 q-8 0 -25 9 l-27 15 q-11 6 -16 11 q-5 5 -4 10 q1 5 12 6 l16 0 l26 2 q36 3 56 4 l82 5 l72 7 ZM395 196 l184 14 l14 138 q1 8 -2 29 q-2 21 -4 25 l-6 19 l-138 -23 q-48 -9 -51 -8 l-19 3 l22 -197 ZM159 -127 l-14 -5 q-4 -2 -7 2 q-3 4 3 8 l10 7 q30 21 58 43 l67 56 q39 35 56 57 q17 22 21 31 q4 9 6 22 q2 14 6 17 q4 3 12 3 q10 0 20 -6 q11 -4 32 -17 q21 -12 27 -21 q6 -10 4 -16 q-1 -4 -14 -9 q-12 -5 -24 -13 q-12 -8 -25 -18 l-34 -27 q-26 -21 -70 -47 q-42 -26 -69 -40 q-27 -12 -65 -27 ZM597 56 l-22 20 q-8 8 -7 12 q1 4 5 6 q4 2 14 -2 l34 -11 q17 -5 50 -20 q32 -15 58 -30 q26 -15 42 -35 q17 -19 24 -37 q6 -18 8 -37 q3 -18 -4 -30 q-7 -12 -18 -14 q-11 -2 -29 12 q-19 12 -31 26 q-13 14 -33 38 q-19 24 -49 57 q-29 33 -42 45 Z" /><glyph glyph-name="uni521B" unicode="&#x521b;" d="M336 708 q9 0 34 -7 q33 -10 33 -20 q1 -13 -39 -83 q24 -5 59 -18 q65 -23 103 -70 q33 -35 33 -70 q0 -19 -15 -19 q-29 0 -68 41 q-54 57 -97 93 q-18 14 -27 23 q-12 -21 -26 -45 q-50 -82 -98 -137 q10 -5 20 -12 q13 -9 18 -17 q98 12 124 25 q25 8 34 8 q11 0 43 -16 q33 -22 33 -39 q0 -5 -10 -21 q-18 -26 -29 -98 q-10 -47 -31 -89 q-19 -33 -35 -33 q-13 0 -23 17 q-27 43 -61 84 q0 8 8 8 q43 -25 61 -25 q12 0 26 45 q18 58 18 108 q0 11 -25 11 q-15 0 -75 -10 q-41 -9 -49 -9 q-3 0 -7 1 q-3 -11 -6 -23 q-14 -86 -14 -251 q0 -40 30 -61 q34 -19 100 -19 q66 0 104 18 q31 13 39 31 q20 31 31 115 q3 21 7 21 q7 0 16 -45 q13 -57 26 -94 q10 -17 10 -25 q0 -27 -54 -47 q-71 -30 -179 -30 q-93 0 -144 41 q-34 27 -34 95 q0 103 12 281 q0 9 -6 30 q-9 -10 -19 -18 q-66 -57 -103 -60 q-8 1 -8 4 q120 123 189 245 q57 100 54 139 l0 15 q3 12 17 12 ZM640 545 q29 -1 48 -13 q15 -10 15 -36 l-8 -251 q0 -51 -8 -71 q-5 -18 -15 -18 q-18 0 -34 30 q-10 23 -10 35 q0 11 19 64 q4 40 4 151 q0 41 -20 76 q-11 17 -11 20 q0 13 20 13 ZM787 733 q23 0 56 -18 q41 -23 41 -42 q-2 -5 -10 -29 q-11 -42 -11 -97 q0 -355 5 -418 q8 -80 8 -105 q0 -57 -21 -110 q-19 -45 -51 -45 q-12 0 -25 17 q-76 99 -104 118 q-10 9 -11 16 q0 8 8 8 q13 0 64 -21 q43 -14 43 -18 q32 3 32 44 l0 564 q0 72 -26 105 q-10 14 -10 19 q0 12 12 12 Z" /><glyph glyph-name="uni5352" unicode="&#x5352;" d="M480 222 q2 45 -1 67 l-3 19 q-2 12 -4 16 q-2 6 -2 10 q0 4 4 7 q4 3 14 0 l24 -5 q16 -4 30 -12 q14 -10 16 -16 q2 -7 0 -14 q0 -2 -6 -15 q-6 -13 -6 -19 l-3 -34 l141 10 q42 3 58 6 q17 2 48 8 q32 6 45 6 q9 -1 25 -4 q15 -4 36 -13 q21 -10 28 -17 q6 -6 6 -12 q-1 -5 -8 -10 q-7 -4 -23 -4 q-16 -1 -60 0 q-44 0 -72 1 q-71 0 -95 -1 l-130 -6 l-12 -260 q0 -12 -4 -31 q-4 -19 -9 -40 q-5 -21 -13 -32 q-6 -11 -12 -11 q-5 0 -10 11 q-4 10 -5 37 l-3 39 l2 29 l4 254 l-83 -6 q-29 -2 -41 -3 q-11 -1 -58 -8 q-47 -7 -62 -11 l-30 -7 q-14 -3 -24 -4 q-12 -1 -26 1 q-14 3 -27 9 q-13 7 -21 12 q-8 5 -12 13 q-4 6 -1 12 q2 3 24 3 q21 -1 29 0 l26 2 l35 1 q31 0 33 1 l109 11 l94 8 l35 2 ZM348 417 q24 -7 42 -13 q18 -7 30 -17 q10 -11 18 -26 q8 -15 2 -31 q-6 -15 -15 -18 q-9 -2 -23 6 q-18 12 -34 34 l-32 46 q-22 -24 -38 -39 q-16 -16 -40 -33 q-23 -16 -34 -22 l-15 -7 q-8 -4 -10 2 q-1 6 4 11 l10 10 q9 8 24 25 l37 46 q23 30 33 48 q11 17 20 41 q9 24 7 36 q-2 11 -1 15 q1 4 5 5 q4 2 14 -1 l14 -4 q10 -3 21 -11 q11 -8 17 -14 q6 -6 7 -11 q0 -5 -5 -13 q-4 -6 -15 -16 q-11 -10 -15 -16 l-28 -33 ZM510 619 q-18 21 -22 28 q-4 7 -20 37 q-16 29 -18 34 l-8 16 q-2 5 -1 8 q1 2 7 3 q4 1 17 -3 l31 -9 q18 -5 34 -19 q16 -14 22 -30 q6 -17 2 -28 l-8 -32 l86 11 q40 5 65 13 q25 8 33 8 q8 0 20 -2 q12 -3 26 -9 q12 -5 20 -13 q6 -6 6 -12 q0 -10 -33 -17 q-33 -7 -109 -13 l-114 -12 l-122 -10 q-71 -6 -97 -8 q-25 -1 -47 0 q-14 1 -36 5 q-21 4 -22 11 q-2 8 0 12 q2 4 6 7 q4 2 30 3 l29 1 q31 1 57 3 q26 2 124 12 l42 5 ZM660 431 q29 -9 60 -17 q32 -9 50 -25 q19 -16 21 -32 q1 -15 -5 -28 q-6 -12 -17 -13 q-11 -2 -26 9 q-14 9 -28 23 l-49 52 l-16 14 q-20 -26 -34 -39 q-12 -13 -33 -27 l-15 -12 q-5 -3 -9 0 q-3 4 1 10 l9 16 l21 36 q6 10 20 40 q14 30 19 45 q5 15 9 31 q4 16 3 27 q-1 11 0 13 q1 3 5 6 q3 2 18 -4 l16 -7 q8 -3 16 -9 q8 -6 16 -14 q7 -7 5 -14 q-1 -2 -5 -6 l-8 -8 q-3 -4 -16 -25 l-28 -42 Z" /><glyph glyph-name="uni5385" unicode="&#x5385;" d="M811 448 q27 0 48 -12 q21 -12 21 -28 q0 -19 -28 -19 q-92 -3 -170 -12 q-39 -7 -74 -13 q8 -4 18 -9 q29 -19 29 -31 q0 -7 -3 -15 q-1 -20 -1 -29 q0 -108 1 -218 q3 -61 3 -78 q0 -33 -19 -80 q-20 -43 -40 -43 q-14 0 -48 35 q-73 73 -121 113 q1 6 4 7 q20 0 71 -16 q61 -24 69 -24 q21 0 21 36 l0 260 q0 35 -39 82 q-45 -8 -82 -15 q-39 -11 -55 -11 q-28 2 -56 14 q-15 6 -17 10 q2 16 29 16 q56 5 107 13 q113 20 269 58 q32 9 63 9 ZM756 700 q21 0 59 -11 q37 -15 37 -29 q0 -13 -33 -19 q-403 -69 -479 -69 q-8 0 -14 2 q-4 -27 -15 -151 q-18 -230 -77 -348 q-48 -102 -104 -156 q-45 -42 -58 -42 q-9 0 -9 4 q0 5 22 30 q58 73 98 164 q35 80 51 178 q22 121 22 271 q0 62 -20 92 q-9 15 -9 21 q0 12 17 12 q13 0 52 -17 q18 -8 25 -14 q178 13 386 69 q45 13 49 13 Z" /><glyph glyph-name="uni58EB" unicode="&#x58eb;" d="M520 332 q37 3 64 5 q27 2 72 7 l76 8 q38 4 54 6 q17 2 35 5 q17 3 26 3 q7 0 19 -4 q12 -4 26 -10 q14 -6 27 -14 q13 -8 22 -20 q8 -10 5 -18 q-4 -6 -12 -6 l-59 0 l-67 0 q-62 2 -96 1 q-32 -1 -84 -4 q-52 -3 -73 -5 l-35 -2 l-4 -272 q21 2 32 4 l52 4 q14 1 44 6 q30 4 44 7 q16 3 23 3 q7 0 18 -4 q11 -3 33 -13 q22 -9 31 -20 q9 -10 6 -17 q-3 -8 -15 -8 l-48 -1 l-46 -1 l-71 0 q-29 -1 -63 -3 q-34 -2 -86 -6 q-50 -4 -71 -7 q-21 -2 -44 -6 q-23 -4 -39 -8 l-19 -5 q-4 -1 -9 0 q-8 0 -24 5 q-16 4 -30 10 q-13 6 -20 14 q-8 8 -6 13 q1 6 10 7 l34 1 q28 1 38 2 q11 1 58 7 l60 6 l46 5 l0 271 q-38 -6 -68 -10 q-31 -4 -73 -12 l-65 -12 q-40 -8 -58 -16 q-18 -7 -23 -7 q-9 -1 -28 7 q-18 8 -33 18 q-16 10 -22 18 q-8 10 -6 14 q2 6 15 7 l55 5 l38 2 q29 2 60 7 l81 11 q29 4 78 10 l49 6 l0 202 l0 49 q0 17 -2 32 q-2 16 -6 27 q-4 10 -11 20 q-7 9 -9 14 q-2 6 -1 10 q2 5 8 8 q7 4 19 4 q18 0 38 -6 q18 -6 34 -14 q16 -8 25 -16 q9 -8 10 -14 q1 -5 -1 -9 q0 -1 -5 -8 q-5 -7 -8 -19 q-4 -11 -7 -22 q-4 -11 -5 -20 q-1 -9 -3 -46 l-2 -35 l-8 -151 Z" /><glyph glyph-name="uni5927" unicode="&#x5927;" d="M420 354 l-102 -18 l-35 -6 q-12 -2 -26 -6 q-13 -3 -18 -3 q-10 -1 -30 8 q-20 9 -30 18 q-10 9 -8 13 q2 4 11 6 l37 4 l69 9 q53 7 81 11 l60 9 l4 36 q2 31 3 55 q1 26 1 58 q2 33 0 48 q-4 16 -9 30 l-12 28 q-7 14 -5 19 q2 5 9 8 q7 3 25 1 l16 -4 q12 -2 26 -7 q12 -4 26 -13 q14 -9 16 -17 q2 -7 -4 -25 q-6 -15 -9 -29 q-3 -15 -5 -42 l-2 -37 l-8 -99 l116 15 q28 4 51 10 q23 6 32 6 q9 0 29 -7 q20 -7 39 -18 q19 -12 17 -19 q-2 -6 -9 -9 q-7 -3 -28 -4 l-43 -4 l-80 -5 q-28 -2 -84 -8 l-46 -4 q22 -34 49 -72 q26 -37 46 -63 q21 -25 59 -65 q38 -40 72 -67 q35 -27 76 -51 q41 -24 78 -42 q36 -19 51 -25 q15 -6 23 -10 q7 -4 7 -8 q1 -5 -5 -9 q-7 -5 -15 -6 l-41 -6 q-32 -4 -60 -6 q-29 -1 -60 2 q-30 3 -50 13 q-20 11 -40 37 q-20 26 -48 66 l-48 75 q-22 35 -46 78 l-46 85 l-16 29 l-20 -51 q-10 -29 -23 -59 q-13 -29 -38 -65 q-25 -36 -51 -66 q-26 -30 -53 -53 q-27 -23 -57 -41 q-30 -18 -66 -34 q-36 -18 -58 -26 q-22 -8 -28 -9 l-10 -3 q-6 -2 -8 3 q-2 5 2 7 l11 7 q3 2 29 18 l44 29 q20 13 49 38 q29 26 57 55 q28 29 50 56 q20 27 41 62 q20 35 35 70 q14 35 22 59 l11 40 Z" /><glyph glyph-name="uni5C06" unicode="&#x5c06;" d="M150 570 q4 6 16 2 q61 -34 94 -64 q21 -19 31 -36 q6 -9 7 -28 q1 -31 -14 -38 q-10 -4 -22 6 q-36 34 -106 138 q-9 15 -6 20 ZM390 490 q0 -444 3 -493 q0 -30 -10 -56 q-7 -21 -16 -28 q-6 -6 -15 -2 q-6 4 -15 23 l-18 46 q-7 21 3 56 q18 66 19 141 q1 147 1 282 q0 78 -2 146 q-1 45 -34 92 q-9 12 -1 20 q19 16 45 2 q60 -34 62 -46 q3 -12 -5 -29 q-16 -61 -17 -154 ZM80 159 q-3 12 10 17 q24 6 37 16 l181 134 q12 10 18 4 q3 -4 -7 -21 q-7 -15 -22 -30 l-73 -80 q-24 -25 -43 -57 q-7 -12 -19 -12 q-39 3 -67 11 q-12 3 -15 18 ZM581 645 q40 31 60 52 q12 12 10 26 q0 12 6 15 q12 1 28 -2 q42 -12 65 -26 q12 -9 10 -20 q-1 -6 -24 -12 q-31 -6 -71 -32 q-45 -28 -109 -58 q-63 -28 -97 -39 q-16 -3 -21 -1 q-4 1 5 7 q84 48 138 90 ZM587 569 q3 6 15 2 q45 -21 68 -42 q16 -12 24 -24 q6 -9 7 -26 q0 -28 -13 -34 q-10 -4 -20 5 q-27 24 -75 101 q-9 12 -6 18 ZM729 442 q54 75 80 126 q7 16 4 32 q-6 19 13 22 q24 0 47 -17 q21 -16 30 -34 q4 -7 -13 -18 q-46 -33 -144 -121 q-9 -7 -15 -4 q-7 4 -2 14 ZM762 279 q9 -258 14 -298 q3 -39 -10 -69 q-9 -24 -22 -37 q-15 -15 -30 3 q-24 33 -96 94 q-10 7 -12 14 q0 7 11 6 q30 -6 63 -11 q13 0 23 4 q9 6 13 28 q6 93 0 262 q-28 -4 -56 -10 q-79 -12 -150 -30 q-15 -4 -34 0 q-16 3 -30 16 q-15 15 4 18 q117 18 219 38 q22 6 46 10 q-3 40 -24 77 q-9 15 -3 22 q6 7 26 2 q30 -9 56 -31 q16 -12 10 -32 q-6 -12 -9 -27 l77 16 q21 3 36 0 q21 -6 48 -26 q15 -10 11 -23 q-3 -7 -23 -9 q-16 0 -84 -3 q-36 0 -69 -4 q0 -1 1 -5 l-6 5 ZM497 197 q3 7 16 3 q52 -21 82 -41 q19 -13 29 -26 q6 -9 10 -28 q3 -30 -11 -39 q-10 -4 -22 4 q-33 27 -96 107 q-10 13 -8 20 ZM465 522 q4 6 17 2 q48 -21 74 -42 q18 -13 26 -26 q6 -9 8 -28 q3 -31 -13 -38 q-10 -4 -22 5 q-28 27 -83 106 q-9 15 -7 21 Z" /><glyph glyph-name="uni5E25" unicode="&#x5e25;" d="M193 514 l20 36 q10 18 20 44 l16 43 q12 29 14 51 q2 22 4 26 q2 4 6 6 q4 2 14 0 l24 -10 q13 -6 28 -17 q14 -11 12 -19 q0 -3 -8 -10 q-6 -6 -12 -14 q-5 -8 -30 -37 l-39 -52 l-53 -66 q42 7 65 12 q23 5 38 10 q15 5 30 11 q15 7 22 8 q6 0 20 -5 q15 -5 20 -8 q6 -3 19 -13 q14 -10 13 -18 q-1 -2 -1 -4 q-1 -2 -13 -17 q-12 -14 -17 -27 l-28 -77 q4 -5 10 -11 q4 -6 3 -10 q-1 -4 -11 -8 l-33 -2 l-145 -17 l-4 -86 q12 1 26 3 q15 2 37 7 q23 5 40 11 q17 6 32 14 q15 10 21 11 q10 1 26 -4 q16 -5 30 -12 q15 -7 19 -13 q4 -6 4 -10 q1 -2 -1 -6 q-2 -6 -10 -20 q-9 -14 -13 -24 q-5 -10 -11 -35 l-16 -57 q7 -2 14 -7 q6 -5 4 -13 q-2 -5 -14 -7 l-20 -1 l-96 -9 q-10 -1 -35 -5 q-24 -4 -29 -2 l-18 2 q-4 -22 -6 -34 q-1 -12 -4 -15 q-4 -3 -9 -1 q-7 0 -13 9 q-8 9 -15 22 q-7 13 -10 26 q-3 13 -3 27 q0 10 9 48 q9 38 13 91 q4 53 5 103 q1 50 2 75 q1 25 0 37 q-2 16 -6 30 q-5 14 -12 26 q-8 10 -7 16 q1 3 5 6 q5 4 13 4 q6 0 28 -6 l16 -6 ZM191 86 l56 7 q25 3 41 7 l47 8 l8 67 q4 41 1 45 q-3 4 -11 8 q-8 4 -36 -5 q-13 -5 -43 -11 q-30 -6 -34 -6 l-23 0 l-6 -120 ZM203 352 l128 24 l12 64 q6 30 6 34 q0 4 -3 8 q-3 4 -15 4 q-8 0 -24 -4 q-17 -6 -44 -10 q-26 -4 -40 -5 l-18 -1 l-2 -114 ZM692 468 l68 11 q23 3 40 9 q17 6 23 6 q6 0 18 -6 q11 -4 24 -12 q14 -8 23 -16 q9 -9 9 -15 q0 -5 -8 -19 q-4 -9 -6 -16 q-1 -8 -2 -24 l-4 -97 q-2 -37 -5 -64 q-3 -27 -7 -42 q-4 -15 -12 -30 q-8 -15 -20 -27 q-10 -12 -20 -11 q-6 0 -11 4 q-5 4 -13 19 q-8 14 -20 26 l-18 16 l-20 20 q-10 8 -6 11 q3 3 14 1 l28 -6 q9 -2 18 -3 q10 -1 14 0 q6 2 8 30 q4 28 4 37 l2 120 q0 1 -1 21 q-2 20 -5 25 q-4 4 -16 6 l-20 0 l-79 -10 l-9 -423 q0 -31 -4 -61 q-4 -30 -8 -51 l-12 -41 q-8 -20 -12 -21 q-5 -1 -6 0 q-6 1 -10 17 q-4 15 -6 37 q-2 21 -1 38 l3 498 l-77 -14 q-1 -31 -3 -51 q0 -18 -4 -60 q-4 -42 -10 -66 l-11 -44 q-7 -24 -13 -33 q-6 -9 -11 -9 q-3 0 -8 5 q-5 5 -9 13 q-4 8 -9 26 q-5 18 -5 26 q0 8 3 16 l12 31 q7 19 11 43 q4 25 4 46 q0 21 -3 42 q-3 15 -10 29 q-7 13 -7 16 q-1 3 0 5 q0 4 2 6 q2 2 7 4 q5 1 10 1 l17 -4 l28 -6 l87 10 l-1 161 q0 21 -3 48 q-3 28 -11 42 q-8 14 -8 18 q-1 6 2 10 q4 4 8 6 q6 3 22 -1 l32 -8 q15 -5 27 -12 q11 -7 13 -14 q0 -6 -4 -18 q-4 -13 -7 -33 q-3 -21 -3 -42 l-3 -146 Z" /><glyph glyph-name="uni5EFA" unicode="&#x5efa;" d="M204 102 l-40 14 q-9 2 -26 4 q-16 3 -33 2 q-17 -1 -26 2 q-9 2 -11 9 q-1 7 3 13 q3 4 15 7 q10 2 24 3 q14 2 28 2 q14 0 28 -4 l58 -15 q10 23 17 42 q8 19 16 44 l12 41 q4 16 1 20 q-2 3 -7 4 q-5 2 -11 2 q-11 0 -23 -4 q-12 -4 -29 -11 q-18 -7 -26 -9 q-9 -2 -15 0 q-7 3 -13 17 q-6 13 -5 22 q0 6 2 10 q2 4 10 13 q9 8 19 23 l19 27 q9 14 19 34 q12 20 22 40 q11 21 17 35 q7 15 3 18 q-2 4 -7 5 q-7 2 -23 -4 q-16 -6 -44 -11 q-28 -5 -42 -7 q-14 -2 -26 -2 q-14 0 -23 4 q-9 4 -10 8 q-1 4 1 7 q2 3 8 4 l16 3 q22 2 59 14 l53 18 q18 6 37 14 q19 8 31 9 q14 1 42 -20 q12 -9 17 -16 q5 -7 5 -12 q-1 -7 -9 -15 l-13 -12 l-23 -26 q-17 -19 -31 -42 l-45 -69 q-15 -20 -19 -29 q-4 -9 -2 -12 q2 -2 10 -2 q8 0 30 6 l40 12 l16 5 q10 1 24 -7 l14 -12 q8 -7 11 -12 q3 -5 4 -9 q0 -3 -3 -8 l-12 -14 q-6 -8 -14 -27 l-21 -57 q-13 -34 -13 -36 l-18 -39 l126 -57 q50 -23 107 -44 q57 -22 124 -36 q67 -13 111 -16 q42 -3 101 -5 q59 -2 80 -2 l36 0 q11 -1 15 -5 q2 -3 1 -6 q-1 -3 -15 -8 l-61 -25 l-75 -30 q-28 -11 -61 -20 q-33 -8 -57 -6 q-26 1 -59 15 q-33 14 -109 57 l-140 78 q-64 34 -106 54 l-38 18 q-17 -22 -29 -36 q-11 -14 -28 -30 q-17 -16 -29 -25 l-38 -25 q-25 -16 -39 -22 l-27 -12 q-7 -4 -10 -2 q-2 3 -2 7 q1 4 7 9 l21 16 q13 10 28 25 q15 14 39 41 q23 26 33 40 l26 38 ZM542 152 l-94 -15 l-33 -7 q-7 0 -14 1 q-7 2 -21 7 q-14 6 -17 12 q-3 6 -3 8 q0 2 3 4 q3 2 21 5 l157 21 l-1 70 l-70 -7 q-8 -1 -19 -1 q-10 0 -17 2 q-6 2 -14 6 q-6 4 -10 8 q-2 4 0 9 q2 5 12 5 l17 2 l103 14 l0 76 l-57 -8 q-25 -4 -34 -4 q-9 0 -19 4 q-10 4 -19 9 q-8 5 -9 9 q0 3 2 6 q2 2 28 6 l107 15 l1 61 l-102 -14 q-30 -4 -36 -4 q-5 0 -24 6 q-20 6 -25 14 q-5 9 -3 12 q2 3 14 4 l176 20 l4 80 l-89 -10 l-13 -2 q-8 0 -14 2 q-6 2 -15 7 q-9 5 -10 10 q-1 4 1 6 q2 1 20 4 l36 5 l84 11 l-2 29 q0 18 -2 32 q0 14 -6 27 q-6 13 -7 19 q-1 6 5 10 q5 4 18 3 q16 -3 34 -8 q18 -6 26 -13 q9 -6 10 -12 q1 -6 -3 -14 l-10 -17 q-3 -7 -5 -27 l-2 -18 l55 10 q25 4 41 10 q15 5 20 6 q12 0 38 -13 q25 -14 30 -21 q4 -7 4 -11 q0 -5 -7 -17 q-7 -13 -11 -27 l-10 -35 l60 8 q23 4 40 4 q18 0 37 -12 q19 -10 22 -15 q3 -5 4 -9 q1 -4 -1 -6 q-2 -2 -6 -4 q-4 -1 -18 -2 l-151 -6 l-15 -72 q8 -8 13 -12 q5 -4 5 -8 q1 -3 0 -5 q-1 -5 -5 -7 q-3 -2 -17 -2 l-46 -2 l-88 -6 l-1 -74 l69 12 l30 4 q9 0 23 -4 q14 -4 20 -6 q7 -3 9 -6 q2 -2 2 -5 q-1 -5 -6 -8 q-5 -4 -18 -5 l-130 -21 l-3 -71 l142 22 l47 9 q10 -1 25 -5 q15 -6 26 -14 q11 -8 13 -11 q2 -3 3 -6 q1 -3 -1 -5 q-2 -3 -8 -6 q-6 -4 -50 -4 l-30 0 q-8 -1 -64 -6 l-44 -3 l-59 -9 l-6 -72 q-1 0 -4 -26 q-3 -24 -10 -38 q-7 -13 -13 -12 q-6 0 -11 16 q-5 16 -7 33 q-2 17 -1 36 l3 59 ZM596 417 l88 13 l11 58 l-97 -12 l-2 -59 ZM598 512 l100 12 l8 40 q2 18 2 27 q0 9 -4 14 q-4 4 -13 5 q-9 2 -35 -4 l-56 -10 l-2 -84 Z" /><glyph glyph-name="uni623F" unicode="&#x623f;" d="M400 604 l42 18 q22 10 38 18 l56 28 q38 20 54 30 q15 9 24 17 q10 8 13 13 l7 16 q2 6 6 8 q3 2 14 -1 q20 -7 30 -11 q10 -5 23 -13 q14 -9 21 -17 q8 -8 6 -14 q-2 -4 -10 -7 q-7 -3 -20 -3 l-210 -72 l-88 -26 q-4 -15 -4 -18 l-2 -18 q12 0 22 2 q9 0 42 5 l48 7 l130 21 q16 3 29 5 q13 2 33 6 q20 5 29 8 l15 3 q6 0 20 -5 q14 -6 24 -12 q11 -6 22 -15 q10 -9 11 -13 q1 -5 -1 -10 q-2 -4 -6 -9 l-10 -11 q-8 -8 -16 -22 l-13 -24 q-12 -20 -13 -24 l-6 -14 q6 -3 9 -6 q3 -2 5 -7 q2 -5 -1 -8 q-3 -4 -13 -5 l-28 -3 l-54 -4 q-12 -1 -40 -5 q-28 -4 -60 -8 q-34 -4 -78 -10 q-44 -6 -65 -8 q-20 -2 -28 -1 l-18 1 q-4 -20 -9 -42 q-4 -24 -18 -73 q-15 -50 -35 -93 q-19 -44 -50 -81 q-31 -37 -64 -65 q-34 -26 -55 -37 l-28 -14 q-10 -5 -12 -1 q-4 4 4 10 l25 22 q15 14 43 46 q28 32 52 68 q24 36 42 78 q18 41 31 88 q12 46 17 88 q5 40 6 73 q2 33 2 67 q0 25 -3 40 q-3 14 -9 28 q-6 14 -8 21 q-1 7 3 12 q4 5 17 3 q8 0 26 -6 q16 -5 20 -6 l14 -8 ZM392 417 l44 5 q19 2 60 7 q42 5 70 9 q30 4 64 11 q34 6 52 10 q18 4 22 4 l14 0 q4 17 6 31 q3 12 6 26 q2 14 3 24 q1 10 -1 14 q-2 4 -14 4 q-10 0 -26 -2 q-16 -2 -36 -4 q-20 -2 -28 -2 l-90 -14 l-37 -7 l-52 -10 q-26 -5 -32 -5 l-19 -2 q-2 -18 -2 -26 l-3 -41 l-1 -32 ZM544 214 l-25 -4 q-13 -3 -31 -6 l-32 -7 q-14 -4 -18 -4 q-6 -1 -14 1 q-8 2 -18 6 q-10 4 -21 9 q-11 5 -13 9 q-3 4 -2 8 q1 4 7 5 q6 1 21 2 q14 1 35 5 q21 4 74 10 l71 10 l52 8 q-10 10 -19 20 q-9 10 -12 14 l-18 25 l-15 20 l-14 18 q-4 4 -1 7 q3 3 11 1 l26 -7 q6 -2 27 -10 q21 -8 33 -14 q11 -6 16 -13 q4 -7 4 -15 q0 -8 -1 -18 q-2 -10 -3 -13 l-4 -11 q18 2 40 6 q22 2 42 6 l44 9 l30 5 q14 2 20 2 q10 0 23 -4 q13 -4 25 -12 q12 -8 18 -16 q7 -10 6 -13 q-2 -3 -8 -6 q-7 -3 -23 -3 q-15 0 -41 -1 q-26 -1 -66 -4 l-64 -5 l-74 -9 l-52 -5 l19 -16 q7 -6 11 -12 q4 -7 3 -12 l-5 -8 l-5 -9 l38 -7 l32 -6 q11 -2 32 -4 q22 -3 39 -3 q16 -1 23 -2 q7 -1 14 -6 q7 -4 18 -15 q11 -11 15 -18 q4 -7 4 -12 q-2 -4 -9 -12 q-7 -9 -11 -17 q-4 -8 -7 -19 l-14 -46 l-18 -50 q-9 -24 -21 -46 q-12 -20 -28 -37 q-16 -17 -31 -24 q-15 -7 -23 -7 q-7 0 -12 3 q-4 3 -9 12 l-11 21 q-6 10 -12 18 l-18 25 l-16 20 q-6 7 -3 9 q3 2 9 0 l19 -6 q7 -4 19 -7 q12 -4 20 -6 q8 -3 16 -3 q5 0 10 2 q4 1 13 11 q8 9 16 26 q9 16 19 44 q10 28 14 42 l8 33 q2 11 2 16 q-2 5 -9 10 q-7 6 -28 10 q-21 4 -45 8 q-24 4 -33 6 q-9 2 -17 6 l-20 7 l-24 -40 q-15 -27 -26 -43 q-11 -18 -36 -46 q-25 -28 -52 -48 q-26 -22 -56 -37 q-28 -15 -48 -21 l-32 -8 q-6 -2 -9 3 q-2 5 9 11 l22 14 q14 8 42 30 q27 22 45 40 q17 18 42 49 q25 31 36 49 q11 18 21 40 q12 23 16 39 q6 15 6 25 l0 18 Z" /><glyph glyph-name="uni695A" unicode="&#x695a;" d="M612 598 l0 46 q0 9 -2 30 q-1 20 -2 32 q-2 12 -6 24 q-6 10 -6 15 q0 5 3 8 q3 3 11 3 q6 0 24 -5 q18 -5 30 -12 q10 -7 12 -12 q0 -5 -6 -21 q-4 -8 -6 -24 q-2 -16 -2 -35 l-2 -39 l23 5 q9 2 21 6 q12 3 25 10 q14 6 21 7 q5 0 24 -6 q18 -6 24 -12 q6 -6 6 -9 q0 -5 -10 -11 q-10 -5 -20 -8 q-10 -2 -45 -10 q-35 -8 -48 -10 l-21 -4 l0 -48 q22 -5 33 -8 q10 -3 19 -6 q10 -3 30 -11 l39 -17 q18 -9 28 -21 q9 -13 13 -28 q4 -16 -4 -28 q-6 -13 -14 -14 q-8 -1 -18 3 q-9 4 -22 13 q-12 9 -29 24 q-17 15 -32 31 l-15 16 l-30 27 l2 -55 l0 -41 q2 -21 2 -23 q0 -14 -6 -28 q-6 -14 -12 -21 q-8 -8 -12 -9 q-4 0 -12 8 q-10 10 -16 25 q-6 15 -4 27 q0 4 3 19 q3 14 5 30 q2 15 2 29 l0 15 q-8 -11 -15 -19 q-7 -8 -16 -20 q-10 -12 -35 -34 q-25 -21 -47 -35 q-21 -14 -34 -19 l-18 -6 q-7 -2 -10 1 q-3 3 3 9 l14 10 l30 27 q22 20 39 39 q18 19 41 53 q24 35 34 56 l10 22 q-35 -5 -50 -6 q-14 0 -30 1 q-16 1 -26 6 q-10 6 -10 12 q0 6 12 8 l24 4 l36 6 q8 0 30 4 l20 4 ZM330 74 l130 -56 l1 143 q0 23 -1 33 q-2 10 -4 22 q-4 12 -6 14 l-6 9 q-49 -7 -82 -11 q-32 -4 -54 -10 l-34 -7 q-18 -4 -25 -4 q-7 -1 -17 3 q-10 4 -20 12 q-10 7 -8 13 q2 5 14 7 l26 2 q8 1 50 8 l96 12 q19 2 110 18 l80 14 q24 4 44 8 q22 4 42 9 q21 5 28 5 q8 0 21 -3 q13 -3 28 -11 l26 -14 q11 -8 22 -18 q11 -11 11 -16 q0 -6 -6 -10 q-6 -4 -17 -7 q-11 -3 -21 -7 q-11 -4 -32 -15 q-22 -11 -34 -16 q-11 -5 -18 -9 l-14 -10 q-8 -4 -11 -2 q-3 2 1 8 l10 15 l9 13 l15 21 q8 11 8 17 q1 6 -1 10 q-3 4 -12 5 q-9 1 -21 -1 l-148 -20 q10 -6 13 -9 q3 -4 3 -8 q1 -4 -4 -20 q-3 -6 -5 -23 q-3 -16 -3 -22 l-2 -38 l118 26 q6 2 12 2 q6 0 15 -2 q9 -2 19 -8 q10 -6 12 -11 q2 -5 0 -9 q-3 -8 -24 -10 q-21 -2 -33 -2 l-41 -7 q-28 -5 -38 -7 l-16 0 l-24 1 l-8 -101 l52 -22 q28 -10 66 -21 q38 -11 82 -20 q44 -9 93 -17 q49 -7 78 -10 q29 -2 36 -2 l14 -2 q8 -2 8 -6 q1 -4 -7 -6 l-14 -5 q-9 -3 -37 -11 l-43 -12 q-14 -4 -24 -6 q-9 -2 -37 -7 q-28 -5 -39 -5 q-9 0 -24 2 q-14 2 -38 10 q-23 8 -77 38 l-102 58 l-97 56 q-32 18 -44 26 l-29 16 l-34 -43 q-15 -19 -38 -41 q-23 -22 -50 -40 q-27 -18 -49 -27 l-34 -14 l-15 -5 q-9 -4 -11 1 q0 5 4 9 l10 6 q12 7 31 22 q19 14 47 40 q28 25 44 46 q18 22 32 48 q14 26 20 40 q5 15 9 30 q4 16 5 24 q0 6 -3 13 q-3 8 -1 12 q1 3 11 5 q7 2 21 -5 q14 -6 19 -9 q5 -2 14 -10 q8 -6 14 -15 q6 -9 5 -13 q0 -5 -9 -13 q-9 -9 -12 -13 l-21 -28 ZM304 516 q-40 -6 -58 -7 q-20 -2 -34 -2 q-28 -1 -43 7 q-15 8 -14 12 q1 5 12 6 l13 2 q13 1 49 7 q37 7 56 11 l33 7 l-2 69 q0 18 -2 34 q0 16 -2 26 q-2 11 -8 19 q-4 8 -4 12 q0 4 6 7 q5 4 16 3 q7 -1 23 -6 q16 -4 24 -11 q7 -6 8 -10 q1 -4 -4 -16 q-5 -12 -9 -32 q-2 -22 -2 -31 l-2 -55 q18 5 34 11 q17 7 24 7 q8 -1 22 -6 q13 -5 21 -10 q8 -6 9 -10 q0 -4 -3 -9 q-4 -5 -25 -9 l-82 -16 l0 -40 q18 -2 31 -4 q14 -3 27 -8 q14 -4 23 -10 q9 -6 14 -16 q5 -8 5 -20 q0 -12 -4 -18 q-4 -6 -10 -6 q-4 -2 -11 -2 q-7 0 -22 12 q-11 10 -29 30 l-24 26 l-2 -64 l4 -48 q0 -16 -4 -30 q-4 -14 -11 -25 q-7 -10 -13 -10 q-5 -1 -13 10 q-9 11 -14 24 q-5 14 -4 25 q0 2 5 18 q4 16 6 28 q2 13 2 24 l0 21 l-47 -51 q-19 -19 -39 -34 q-20 -16 -45 -30 q-26 -14 -35 -18 l-25 -10 q-7 -2 -10 1 q-2 4 5 9 l18 14 q6 4 34 29 q30 25 45 40 q15 15 41 51 q27 35 34 48 l12 24 Z" /><glyph glyph-name="uni6CB3" unicode="&#x6cb3;" d="M101 422 l-19 26 q-6 6 -2 12 q4 4 16 2 l20 -4 q10 -3 34 -11 q24 -7 38 -15 q14 -8 21 -18 q7 -12 8 -30 q2 -18 -1 -26 q-3 -8 -10 -12 q-7 -4 -14 -3 q-7 0 -16 3 q-8 4 -25 18 q-17 15 -33 36 l-17 22 ZM219 199 l41 71 q6 10 13 7 q8 -3 3 -15 l-20 -54 l-37 -90 l-36 -82 l-19 -47 q-7 -19 -11 -33 q-5 -14 -9 -23 q-4 -9 -10 -11 q-4 -3 -7 -3 q-2 -1 -6 1 q-5 1 -11 11 q-6 10 -12 27 l-9 28 q-8 24 -8 35 q0 6 2 9 q1 4 6 8 q4 4 23 19 q19 15 33 30 q13 15 22 27 q8 12 29 48 q22 35 23 37 ZM174 628 l-14 18 q-6 8 -3 14 q4 5 17 2 l16 -2 q13 -4 43 -10 q31 -8 45 -16 q14 -10 18 -20 q4 -10 5 -28 q1 -18 -3 -25 q-4 -7 -12 -12 q-9 -5 -21 -2 q-11 1 -21 9 q-10 6 -22 19 l-25 27 q-19 20 -23 26 ZM738 518 l21 -17 q9 -8 11 -15 q2 -8 -1 -18 l-5 -18 q-2 -10 -4 -37 q-3 -28 -2 -51 l1 -224 l4 -92 q0 -26 -3 -59 q-2 -27 -6 -47 q-4 -20 -17 -44 q-13 -25 -25 -31 q-13 -7 -21 -6 q-7 0 -11 2 q-4 3 -8 7 l-28 34 l-22 22 q-12 12 -23 21 l-25 19 q-8 6 -5 12 q3 5 17 2 l35 -6 l31 -5 q18 -3 25 -1 q6 3 11 11 q5 9 8 48 q4 40 5 57 q1 18 2 45 l2 245 q0 10 -3 40 q-4 31 -5 38 q-1 6 -6 30 l-7 32 l-122 -17 l-78 -12 q-31 -5 -51 -9 q-20 -4 -37 -8 q-17 -4 -24 -4 q-10 0 -28 8 q-18 8 -26 16 q-8 8 -6 14 q2 5 26 8 l44 6 q54 6 64 8 l81 11 l179 25 q26 4 44 8 l54 12 q36 8 57 9 q13 0 23 -3 q10 -2 28 -12 q17 -9 25 -16 q8 -7 8 -12 q1 -6 -3 -10 q-4 -4 -22 -6 l-37 -2 l-55 -2 q-22 0 -51 -2 l-39 -4 ZM432 180 q-3 -10 -7 -18 q-5 -9 -12 -9 q-3 -1 -7 2 q-4 3 -8 11 q-4 10 -5 18 l-19 106 q-2 16 -6 24 q-4 8 -12 18 q-7 10 -12 18 q-6 7 -5 10 q1 4 15 4 q15 0 27 -3 l15 -4 l108 24 q15 3 31 9 q15 7 17 8 q8 0 19 -7 q11 -7 21 -16 q10 -9 18 -18 q7 -10 7 -15 q-1 -4 -11 -18 q-10 -14 -15 -23 q-5 -9 -9 -20 l-20 -59 l8 -8 q8 -8 7 -12 q-1 -3 -7 -4 l-26 -4 l-112 -14 ZM428 220 q18 2 26 4 l49 10 l18 3 q1 20 4 43 q3 22 4 42 q1 20 -7 25 q-8 5 -30 3 q-20 -2 -42 -8 l-36 -8 l14 -114 Z" /><glyph glyph-name="uni6F22" unicode="&#x6f22;" d="M552 87 q-26 -3 -44 -6 q-18 -2 -33 -5 q-16 -2 -41 -6 q-26 -5 -44 -11 q-18 -5 -24 -5 q-7 0 -20 5 q-13 5 -25 13 q-12 8 -16 15 q-4 6 -3 9 q0 3 2 5 q2 1 22 3 l26 2 q31 1 46 2 q15 2 48 6 q34 4 48 6 l68 8 q4 20 5 24 l3 26 q-26 -2 -47 -5 q-21 -3 -27 -3 q-19 0 -32 2 q-12 4 -22 8 q-10 6 -10 10 q0 1 1 4 q1 2 6 4 q5 3 14 4 l33 4 q18 1 40 4 l48 6 l3 47 q-35 -5 -57 -9 q-23 -2 -32 -2 l-28 -2 q-4 -6 -9 -10 q-5 -4 -9 -3 q-4 1 -9 9 q-5 8 -9 26 l-11 62 q-3 14 -8 25 q-5 11 -12 19 q-7 8 -7 11 q0 4 3 7 q3 2 13 2 l31 -4 l18 -5 l122 20 q-5 22 -7 27 l-7 17 l-15 -1 q-10 -8 -14 -7 q-4 0 -6 2 q-4 2 -6 7 l-12 42 l-14 54 q-22 -4 -34 -6 l-17 -6 q-13 -4 -24 -2 q-13 1 -29 8 q-16 8 -21 14 q-5 6 -3 10 q2 4 12 5 l38 4 q4 0 30 4 l40 6 l-13 43 q-3 10 -8 17 q-4 7 -9 12 q-6 5 -8 11 q-2 6 2 10 q4 5 13 6 q12 1 26 -1 q13 -2 25 -5 q10 -4 18 -8 q6 -5 8 -12 q0 -2 -3 -11 q-3 -9 -2 -23 l1 -31 q45 6 52 7 l86 12 l4 51 q0 2 -1 21 q-1 20 -5 32 q-4 11 -2 15 q0 3 4 6 q4 2 14 1 q11 -2 19 -5 q8 -3 22 -12 q15 -8 21 -16 q6 -8 5 -15 q-1 -5 -6 -12 q-5 -6 -7 -11 q-2 -5 -6 -17 l-6 -28 l33 6 q3 0 20 3 q18 3 27 3 q10 0 24 -5 q14 -5 25 -11 q11 -6 13 -10 q2 -5 2 -8 q0 -2 -2 -5 q-2 -3 -6 -5 q-4 -2 -22 -2 l-31 0 l-33 -3 l-59 -4 q-5 -32 -7 -38 l-8 -41 q8 -6 11 -10 q3 -4 3 -8 q0 -3 -1 -4 q-1 -2 -4 -4 q-3 -2 -15 -3 q-12 0 -42 -5 l-43 -8 q13 -8 18 -12 q6 -4 10 -10 q4 -6 3 -7 l-6 -17 l62 8 q28 4 46 9 q16 5 23 5 q9 0 16 -3 q7 -3 23 -14 l23 -15 q7 -6 10 -14 q3 -9 -1 -15 q-1 -3 -12 -9 q-10 -7 -19 -20 q-9 -14 -10 -14 l-13 -17 q16 -9 18 -16 q2 -7 0 -10 q-1 -3 -4 -4 q-3 -1 -9 -2 q-6 -1 -29 -1 q-24 -1 -44 -3 q-21 -3 -54 -7 l-31 -4 l-3 -43 l34 7 l40 8 q12 0 25 -2 l27 -8 q14 -4 17 -9 q3 -5 0 -8 q-3 -3 -12 -5 l-20 -4 q-13 -4 -43 -8 l-44 -6 l-27 -4 q-3 -29 -5 -37 l-3 -18 l153 13 q28 2 49 6 q21 4 30 4 q7 -2 23 -6 q16 -6 27 -13 q11 -8 18 -16 q7 -8 7 -12 q0 -3 -2 -7 q-2 -4 -5 -6 q-3 -2 -15 -2 l-21 2 l-21 0 l-56 3 q-38 1 -74 1 q-28 -1 -40 -2 l-81 -5 q-5 -17 -11 -30 q-5 -14 -18 -37 q-12 -22 -45 -54 q-33 -32 -79 -52 q-47 -22 -88 -28 l-63 -10 q-15 -2 -16 3 q-1 6 9 9 l49 16 q44 14 73 29 q29 15 66 48 q38 33 48 62 l16 38 ZM460 284 q27 1 42 2 q16 2 40 6 l37 6 l-2 86 l-60 -12 q-24 -6 -41 -11 l-18 -7 q2 -16 2 -25 l0 -25 l0 -20 ZM670 578 l-134 -18 q4 -33 5 -40 l3 -34 l24 3 q8 1 24 6 q15 5 29 9 q14 4 17 4 l24 4 l8 66 ZM635 306 l35 6 l50 10 l21 3 q6 21 10 32 q3 12 4 23 q0 12 -5 16 q-4 4 -14 4 q-9 0 -25 -1 l-75 -7 l-1 -86 ZM656 27 l-15 11 q-5 4 -3 9 q4 5 9 3 l29 -8 q40 -11 62 -19 q23 -7 62 -27 q38 -20 56 -36 q18 -16 24 -30 q7 -14 7 -31 q-1 -13 -5 -21 q-4 -8 -8 -11 q-4 -2 -8 -3 q-13 -2 -31 7 q-17 9 -47 37 q-30 28 -56 55 l-32 32 l-44 32 ZM244 228 l18 35 q7 13 14 7 q6 -6 2 -19 l-10 -33 q-10 -30 -28 -74 l-29 -72 q-11 -26 -21 -56 q-10 -30 -16 -53 q-6 -23 -12 -35 q-6 -12 -13 -13 q-5 -1 -13 5 q-8 4 -20 33 q-12 29 -15 39 q-3 10 -2 22 q1 10 6 17 q5 7 21 20 q17 13 33 33 q16 21 33 48 q16 26 24 41 q8 14 28 55 ZM197 632 l25 -4 q10 -2 32 -8 q22 -6 36 -15 q14 -9 20 -20 q4 -11 5 -29 q0 -16 -7 -26 q-4 -6 -8 -8 q-5 -3 -10 -3 q-8 -1 -20 6 q-12 7 -34 34 q-22 27 -33 38 q-11 11 -13 16 l-4 8 q-2 3 0 7 q3 4 11 4 ZM123 442 l24 -7 q7 -3 36 -12 q28 -10 36 -18 q7 -8 11 -22 q4 -15 3 -26 q-1 -17 -9 -23 q-8 -8 -18 -8 q-10 0 -26 10 q-16 10 -36 40 q-21 30 -26 41 l-8 15 q-2 3 2 7 q3 5 11 3 Z" /><glyph glyph-name="uni70AE" unicode="&#x70ae;" d="M284 381 q18 23 28 37 q10 15 17 28 q7 14 14 32 q7 18 9 32 q3 14 8 18 q4 4 22 -4 q14 -7 24 -16 q10 -8 17 -20 q7 -12 6 -18 q-1 -5 -8 -10 l-29 -16 l-28 -22 l-35 -27 q-17 -13 -23 -16 l-23 -13 q-3 -34 -5 -64 q-2 -30 -5 -58 q-3 -28 -7 -42 l-10 -44 q18 -4 24 -7 q8 -2 35 -14 q28 -13 39 -21 q12 -8 17 -24 q5 -16 3 -31 q-3 -12 -9 -18 q-6 -7 -15 -8 q-8 -1 -20 12 l-14 19 l-62 81 l-22 -57 q-11 -26 -30 -54 q-18 -29 -39 -50 l-41 -38 q-20 -17 -32 -24 l-17 -9 q-9 -5 -11 -1 q-2 4 2 10 l12 13 q29 31 52 63 q22 32 37 63 q15 31 26 62 q11 31 21 75 q8 44 13 84 q4 39 6 100 q1 60 1 108 q0 70 -4 106 q-4 38 -11 51 q-7 13 -7 19 q0 6 4 10 q4 4 14 4 q16 0 35 -5 q19 -6 31 -15 q13 -8 14 -14 q0 -6 -5 -20 q-3 -8 -7 -32 q-4 -23 -4 -31 l-6 -127 l-2 -57 ZM92 401 l16 -5 q16 -6 29 -14 q14 -8 26 -22 q12 -14 16 -30 q4 -17 1 -35 q-2 -13 -8 -21 q-6 -8 -16 -10 q-10 0 -24 15 q-7 7 -16 22 q-9 15 -16 29 q-8 15 -14 30 l-10 25 q-4 11 0 15 q4 4 16 1 ZM462 307 l54 15 q18 6 35 14 q17 10 22 10 q5 0 20 -5 q14 -5 21 -9 q8 -3 18 -10 q10 -6 11 -12 q1 -7 -9 -21 q-8 -11 -12 -19 q-5 -8 -9 -20 l-23 -70 q6 -4 12 -9 q6 -5 5 -11 q-1 -7 -17 -9 l-16 -1 l-116 -24 q0 -27 -1 -53 q-1 -25 0 -40 q1 -25 8 -42 q7 -16 22 -29 q15 -12 54 -21 q39 -9 85 -10 q44 -2 90 2 q48 5 82 15 q35 12 51 30 q17 18 23 39 q8 21 13 53 l7 46 q2 15 8 14 q6 0 8 -12 l10 -44 q4 -26 8 -37 q4 -11 10 -25 q6 -13 14 -23 q8 -9 12 -18 q3 -9 -25 -33 q-19 -16 -49 -31 q-30 -15 -74 -24 q-46 -9 -98 -11 q-46 -2 -90 1 q-44 3 -80 13 q-35 9 -61 23 q-25 15 -40 32 q-15 17 -21 39 q-6 22 -7 46 q-1 24 -1 38 l4 86 l2 83 q0 37 -5 54 q-6 17 -4 24 q2 6 7 9 q5 2 14 -2 l28 -11 ZM460 163 q50 9 66 16 l19 7 l15 73 q6 29 2 34 q-5 5 -14 5 q-5 0 -20 -2 q-16 -3 -28 -7 l-21 -7 l-9 -26 q-4 -12 -4 -24 l-6 -69 ZM536 468 q28 4 45 7 q17 3 47 11 l60 14 q40 10 62 19 q21 9 30 9 q10 -1 18 -7 q10 -5 24 -16 q16 -10 21 -18 q5 -8 5 -17 q0 -2 -6 -16 q-6 -12 -8 -28 l-8 -38 q-5 -24 -12 -71 q-6 -47 -10 -64 q-3 -18 -9 -43 q-6 -25 -14 -43 q-7 -18 -21 -36 q-12 -17 -28 -24 q-16 -6 -23 -3 q-7 3 -14 18 q-7 16 -17 30 q-10 14 -19 24 l-13 14 q-5 6 -2 10 q2 4 13 1 l19 -7 q16 -7 22 -9 q7 -2 13 -1 q9 2 18 16 q9 14 15 43 q8 29 14 64 q6 35 8 60 q2 26 5 59 q2 32 -5 40 q-7 8 -28 10 q-18 0 -57 -10 q-39 -10 -61 -17 q-22 -7 -40 -15 q-18 -8 -24 -8 l-12 4 l-24 10 q-13 -18 -22 -29 q-10 -12 -26 -29 q-16 -16 -24 -23 l-16 -13 q-9 -8 -12 -2 q-2 5 4 15 l10 16 l18 29 q8 15 22 44 l27 60 q13 29 22 58 q9 28 15 49 q4 21 8 39 q4 20 3 32 q0 12 3 16 q3 4 12 5 q10 1 32 -13 q22 -12 32 -23 q10 -11 8 -19 q0 -4 -8 -14 q-8 -9 -15 -22 q-7 -12 -13 -26 l-19 -38 q-13 -27 -21 -41 l-24 -43 Z" /><glyph glyph-name="uni754C" unicode="&#x754c;" d="M347 409 l-36 -1 q-1 -10 -4 -14 q-4 -6 -10 -6 q-6 -1 -14 9 q-8 10 -10 27 l-19 132 q-4 28 -9 49 q-5 21 -16 37 l-14 20 q-6 10 -4 14 q2 4 13 6 l35 -7 l20 -5 q44 4 73 6 l73 10 q44 6 74 12 l78 16 l40 8 q28 6 41 6 q9 -1 17 -3 q9 -1 37 -13 q28 -12 39 -22 q11 -10 12 -16 q1 -6 -12 -24 q-12 -19 -18 -39 l-46 -161 q-11 -38 -26 -47 q-15 -9 -17 -3 l-23 31 l-58 -3 q34 -29 50 -44 l59 -56 q29 -28 51 -45 q22 -17 46 -31 q24 -14 55 -30 q31 -16 61 -27 l66 -27 q14 -5 14 -9 q1 -5 0 -7 q-2 -2 -14 -4 l-23 -6 q-4 -1 -51 -10 q-48 -8 -61 -7 q-17 1 -31 8 q-14 7 -42 36 q-27 29 -42 47 l-42 53 l-60 75 q-32 41 -50 52 l-36 26 l-129 -12 q16 -11 25 -18 q8 -6 17 -17 q9 -11 6 -17 q-1 -2 -5 -6 q-5 -4 -14 -14 l-24 -24 l-24 -28 q-25 -28 -59 -58 q-34 -30 -74 -57 q-39 -27 -85 -47 q-46 -20 -64 -26 l-16 -4 q-6 -2 -8 4 q-2 6 3 9 l16 9 q22 11 62 39 q40 27 86 69 q45 42 64 64 q19 22 32 42 q13 20 19 36 q5 15 6 32 l0 11 ZM299 556 q38 4 72 8 q35 3 36 4 l31 4 q-3 21 -5 43 q-3 21 -12 33 l-5 8 q-53 -4 -81 -7 q-27 -3 -33 -2 l-19 1 l16 -92 ZM313 446 l129 10 l-3 74 q-46 -6 -74 -9 q-28 -3 -38 -1 l-24 4 l10 -78 ZM491 580 q15 3 23 4 l34 6 q37 7 53 7 q20 -1 34 -5 l20 -8 l6 67 q0 12 -2 20 q-2 8 -5 10 q-3 3 -5 4 q-4 1 -30 -2 l-151 -18 l20 -10 q7 -3 10 -7 q3 -3 4 -11 l-7 -32 l-4 -25 ZM487 460 l52 8 q24 3 33 4 q8 2 17 1 q14 -1 26 -5 l13 -6 q13 46 15 58 l7 41 q-21 -3 -31 -5 q-10 -2 -51 -8 q-41 -6 -49 -7 l-28 -3 l-4 -78 ZM251 -84 l8 9 l24 27 q12 15 26 42 q14 28 22 53 q9 25 12 51 q2 24 2 42 q0 16 -2 29 q-2 13 -5 23 q-3 10 -8 18 q-5 8 -4 12 q1 4 6 8 q5 3 15 2 q9 0 24 -4 q16 -3 29 -11 q13 -9 14 -14 q1 -5 -5 -18 q-2 -7 -5 -20 q-3 -13 -3 -19 q-2 -5 -6 -38 q-6 -34 -14 -59 q-8 -26 -20 -49 q-14 -22 -33 -42 q-19 -20 -37 -32 q-18 -12 -27 -16 l-10 -4 q-3 -2 -6 2 q-2 2 3 8 ZM563 -22 l2 198 l0 26 q-2 10 -4 26 q-2 16 -4 23 q-2 7 -2 11 q0 4 3 7 q3 3 15 2 q8 -1 24 -7 q17 -6 26 -15 q8 -8 9 -13 q1 -6 -3 -15 q-4 -11 -7 -22 q-2 -11 -3 -28 l0 -31 l-2 -86 l-2 -44 q-2 -38 -5 -62 l-5 -33 q-5 -26 -12 -41 q-6 -16 -12 -14 q-6 0 -9 11 q-3 11 -4 18 q-1 7 -3 37 q-2 30 -2 52 Z" /><glyph glyph-name="uni76F8" unicode="&#x76f8;" d="M350 400 q-60 -6 -89 -8 q-30 -2 -44 0 q-15 2 -28 9 q-13 7 -15 13 q-2 6 2 10 q2 4 18 5 l28 3 q9 0 50 6 l59 9 l32 5 l0 148 q0 24 -3 38 q-2 13 -6 24 q-3 10 -8 24 q-4 14 -1 20 q3 7 11 9 q8 2 24 -5 l24 -13 q14 -9 22 -17 q8 -8 9 -14 q0 -6 -3 -14 q-4 -14 -6 -24 q-2 -10 -5 -28 q-3 -19 -3 -29 l-8 -109 l30 8 l19 6 q14 4 21 4 q8 0 24 -4 q17 -4 27 -12 q10 -8 9 -14 q0 -6 -8 -11 q-8 -5 -23 -7 l-35 -9 l-39 -7 l-27 -4 l-3 -94 l31 -9 q14 -5 33 -15 q19 -11 32 -22 q13 -12 17 -21 q4 -9 5 -24 q0 -15 -6 -22 q-5 -8 -15 -9 q-10 0 -21 9 q-11 9 -27 29 l-50 60 l-6 -291 l-1 -71 q-2 -15 -6 -28 q-5 -14 -13 -24 q-8 -11 -12 -10 q-6 0 -13 8 q-8 8 -13 20 q-6 11 -10 28 q-6 16 -6 27 q0 11 6 35 q5 20 6 32 q2 11 8 61 q5 51 6 56 l9 169 l-23 -36 q-10 -18 -33 -50 q-23 -32 -44 -54 q-21 -21 -42 -36 q-22 -16 -43 -28 q-20 -11 -43 -21 l-23 -10 q-8 -4 -10 1 q-2 5 5 12 l21 16 l37 32 q18 17 51 52 q33 36 51 63 q18 27 42 67 l29 51 l16 35 ZM632 516 l78 16 q22 4 40 8 q16 4 34 9 q18 5 32 11 q14 6 20 6 q10 1 22 -5 q14 -6 27 -16 q13 -9 27 -21 q14 -12 14 -19 q0 -1 -6 -11 q-6 -10 -10 -24 q-4 -14 -6 -22 q-1 -8 -2 -24 l0 -36 l-4 -154 q0 -26 6 -81 l9 -81 q3 -26 3 -40 q0 -22 -7 -38 q-7 -17 -19 -33 q-12 -17 -21 -23 q-9 -6 -17 -6 q-7 2 -12 14 l-29 66 q-29 -4 -50 -6 l-32 -3 q-11 -1 -53 -3 l-53 -4 l-5 -27 q-3 -11 -10 -13 q-7 -2 -16 11 q-12 13 -17 29 q-5 14 -5 27 q0 13 8 53 q2 12 8 63 q5 50 6 65 l4 182 q0 35 -1 42 q-1 8 -5 32 q-4 23 -10 36 q-7 13 -7 18 q-1 6 5 10 q6 4 19 2 q11 -2 22 -6 l13 -4 ZM626 38 q34 2 50 4 l56 8 l59 7 q21 3 24 1 l22 -7 q1 25 2 37 l1 49 l3 47 q-40 -8 -59 -11 l-51 -10 q-29 -5 -51 -7 q-22 -2 -35 0 l-15 2 l-6 -120 ZM633 191 q25 3 43 6 q18 3 36 7 l42 10 q22 6 34 6 q16 0 34 -6 l21 -6 l0 132 q-21 -6 -39 -10 q-18 -4 -38 -7 l-52 -9 q-33 -6 -44 -6 l-12 0 l-20 5 l-5 -122 ZM638 342 l36 7 l44 9 q30 6 47 12 q18 5 25 6 q15 1 29 -3 l24 -7 l0 100 q0 22 -4 30 q-5 8 -17 11 q-13 4 -34 3 l-56 -7 q-30 -3 -48 -7 l-42 -10 l-4 -144 Z" /><glyph glyph-name="uni80DC" unicode="&#x80dc;" d="M209 220 l-9 -45 q-5 -30 -23 -67 q-16 -38 -36 -68 q-19 -29 -42 -51 l-20 -19 q-10 -10 -14 -5 q-6 5 4 19 l13 19 q13 21 32 59 q18 39 29 81 q10 41 14 79 q5 37 8 86 q2 48 4 90 l4 118 q0 24 -2 38 q-2 14 -6 27 q-4 12 -11 20 q-6 9 -9 13 q-2 4 1 9 q3 4 12 5 q13 1 33 -5 q20 -6 24 -9 l16 -8 q18 4 28 6 q8 2 20 6 l30 10 q18 7 27 13 q10 7 15 8 q6 1 22 -7 q11 -6 22 -13 q11 -7 20 -15 q9 -9 9 -17 q-1 -4 -9 -17 q-8 -14 -10 -31 q-3 -17 -3 -38 l-4 -426 q-1 -39 -2 -61 q-1 -22 -7 -40 q-6 -18 -20 -36 q-14 -18 -26 -23 q-12 -5 -18 -1 q-5 2 -12 14 q-6 12 -21 32 q-15 21 -25 32 l-19 22 q-7 8 -5 12 q2 4 10 2 l44 -15 q18 -7 25 -5 q6 1 11 9 q5 9 6 27 l4 66 l2 174 l-49 -50 q-9 -9 -17 -21 q-10 -11 -14 -21 q-4 -10 -7 -12 q-3 -2 -8 -4 q-5 0 -15 7 q-10 7 -20 19 l-6 8 ZM224 476 q11 -2 16 -3 q5 -1 18 -3 q13 -2 20 -4 q7 -1 33 -8 q26 -8 30 -16 l6 -10 l2 80 l-2 58 q0 15 -5 21 q-5 6 -12 7 q-7 0 -35 -7 l-62 -18 q-2 -14 -5 -29 q-2 -15 -3 -32 l-1 -36 ZM223 458 l0 -24 l-4 -103 q-2 -27 -2 -35 l-4 -42 q10 3 17 6 q7 2 21 8 q14 6 23 11 l71 41 l2 62 q-6 -8 -10 -10 q-4 -2 -11 -2 q-5 1 -11 4 l-12 10 q-8 6 -29 26 l-51 48 ZM525 353 q-10 -15 -18 -29 l-21 -29 q-11 -17 -20 -25 l-17 -18 q-6 -6 -10 -2 q-5 4 0 13 l10 23 l14 30 q12 25 24 53 q10 28 16 43 q4 16 7 25 q2 9 9 38 q7 29 7 39 q1 9 3 12 q2 4 8 5 q7 1 20 -7 q13 -8 19 -12 q5 -4 13 -12 q6 -6 10 -12 q2 -6 2 -12 q-1 -4 -10 -14 q-8 -8 -15 -18 q-7 -10 -15 -25 l-18 -33 l-6 -10 l19 0 q7 0 27 2 q20 2 51 7 l17 3 l1 129 q0 21 -1 40 q-2 19 -6 39 q-3 20 -5 26 q-2 6 -8 20 q-6 14 -5 20 q0 5 4 8 q4 4 16 4 q14 0 24 -3 q11 -3 30 -11 q18 -8 25 -15 q7 -8 8 -16 q0 -7 -7 -27 q-4 -10 -7 -28 q-3 -18 -5 -37 q-2 -19 -2 -35 l-2 -103 q6 1 10 2 l29 6 q15 3 29 8 q14 5 20 5 q6 0 15 -2 l24 -8 q17 -5 22 -9 q5 -4 6 -7 q0 -4 -5 -10 q-4 -5 -31 -9 l-25 -4 l-44 -7 l-28 -4 l-23 -3 l-4 -138 q12 3 19 6 q8 2 26 9 q18 6 26 7 q8 1 19 -2 q11 -3 24 -8 q13 -5 17 -10 q5 -5 4 -10 q-1 -5 -10 -7 l-16 -4 q-2 0 -22 -4 l-56 -12 l-32 -6 l-5 -138 q21 1 46 4 q24 2 48 5 q25 3 48 7 q23 5 33 5 q12 -1 29 -7 q17 -6 30 -14 q13 -8 20 -15 q6 -7 7 -11 q0 -5 -6 -10 q-5 -4 -36 -4 l-33 2 l-65 0 q-48 0 -92 -2 q-44 -2 -93 -8 q-49 -6 -81 -12 q-32 -6 -46 -10 q-14 -4 -18 -4 q-8 -1 -18 2 q-10 4 -21 9 q-11 5 -23 13 q-13 8 -14 12 q-1 4 1 8 q2 3 13 4 l20 2 l54 3 l48 5 l50 4 l48 6 l1 135 q-16 -3 -25 -3 q-10 -2 -20 -2 q-11 -2 -22 -1 q-11 0 -20 2 q-8 1 -16 5 q-7 3 -14 8 q-6 5 -6 8 q0 3 2 5 q2 1 12 3 l10 0 q12 2 37 5 q25 3 35 4 q10 1 12 1 l15 4 l1 141 q-13 -2 -26 -3 q-12 -2 -28 -4 q-16 -1 -27 -1 q-12 1 -20 2 q-8 2 -15 5 l-10 5 Z" /><glyph glyph-name="uni8C61" unicode="&#x8c61;" d="M535 234 q31 26 44 38 q13 12 28 30 q15 17 23 28 q9 12 12 22 q4 10 6 13 q2 3 5 3 q3 2 11 -3 q12 -7 20 -15 q8 -8 16 -18 q8 -9 12 -20 q6 -10 2 -16 q-2 -3 -6 -4 q-3 -1 -11 -2 q-9 0 -14 -2 q-6 -2 -18 -7 q-11 -5 -34 -17 l-51 -26 l-32 -16 l24 -21 l52 -51 q16 -16 40 -35 q23 -19 46 -34 q22 -15 48 -28 q26 -12 53 -23 q27 -11 45 -14 l24 -5 l14 -3 q11 -2 12 -8 q1 -6 -7 -9 l-13 -5 q-26 -8 -39 -11 l-43 -7 q-26 -6 -32 -6 q-20 -1 -33 4 q-13 6 -36 28 q-23 22 -32 32 l-33 40 l-44 50 l-45 56 q-20 24 -35 39 l-14 15 q11 -21 17 -37 q7 -15 13 -52 q6 -37 6 -71 q0 -34 -3 -60 q-4 -32 -12 -59 q-7 -27 -22 -50 q-15 -24 -32 -36 q-17 -11 -25 -10 q-3 0 -6 1 q-2 2 -6 5 q-3 3 -18 23 l-28 34 q-17 20 -18 22 q-2 2 -19 17 l-9 7 q-6 6 -3 9 q3 3 15 1 l10 -3 l18 -7 q6 -3 20 -6 q14 -2 18 -2 q10 -1 20 6 q12 6 18 18 q8 13 15 45 q8 32 7 57 l-2 60 q-15 -14 -40 -35 q-24 -21 -47 -38 q-22 -17 -65 -41 q-42 -23 -79 -36 q-37 -14 -63 -20 q-24 -7 -34 -8 l-14 -3 q-10 -2 -14 3 q-4 4 8 10 l10 4 q7 2 24 11 l68 33 q40 20 74 44 q35 24 74 58 q40 34 58 55 l26 31 q-7 24 -10 28 l-10 19 l-31 -32 q-15 -14 -53 -43 q-39 -28 -66 -43 q-27 -15 -63 -28 q-35 -13 -53 -18 q-18 -4 -26 -5 l-8 -1 q-8 -1 -10 3 q-2 4 3 6 l11 6 q4 3 24 12 q19 8 42 20 q22 12 60 38 q37 26 69 53 q31 26 45 43 l20 26 l-34 20 l-34 -21 l-38 -24 q-18 -10 -44 -21 q-25 -12 -39 -16 q-14 -6 -37 -13 l-12 -4 q-9 -3 -11 1 q-3 5 3 8 l10 6 q5 4 28 16 q22 12 45 27 q23 15 47 33 q24 19 40 34 q16 16 20 21 l18 24 l-78 -6 l-6 -8 q-8 -11 -9 -11 q-1 0 -7 2 q-6 2 -10 12 l-6 12 q-4 5 -4 6 l-15 80 l-6 20 q-4 8 -7 12 l-12 12 q-6 4 -6 9 q0 5 4 7 q4 2 11 0 l29 -5 l17 -5 l144 14 l56 58 q18 18 27 29 q9 11 8 15 q-2 4 -18 1 q-8 -1 -29 -6 q-21 -5 -39 -6 q-20 -1 -30 1 l-19 4 l-35 -26 q-18 -14 -38 -25 q-20 -11 -32 -15 l-14 -6 q-12 -4 -13 0 q-2 4 4 8 l9 9 l30 25 q12 10 36 37 q22 26 35 43 q13 16 21 30 q8 13 10 26 q4 12 7 15 q3 3 12 3 q5 0 14 -4 q9 -3 19 -8 q8 -4 16 -10 q8 -6 10 -11 q2 -5 2 -9 q-1 -4 -14 -10 q-12 -6 -19 -13 l-35 -33 l52 10 q11 2 26 7 q15 5 34 13 l24 10 q11 4 17 4 q9 1 20 -3 q11 -4 21 -9 q11 -6 19 -15 q7 -9 7 -13 q-1 -6 -16 -12 q-14 -6 -24 -14 l-28 -22 l-26 -18 l-46 -39 l-23 -17 l59 10 q22 4 53 11 q31 7 45 13 q15 5 20 6 q8 0 16 -3 q8 -3 22 -11 q15 -8 25 -15 q10 -6 17 -14 q7 -8 6 -13 q0 -4 -6 -10 q-7 -6 -14 -16 q-8 -10 -12 -16 l-12 -24 l-24 -48 q-10 -22 -19 -28 q-8 -6 -14 -7 q-5 -1 -11 1 q-6 4 -9 12 l-5 14 l-158 -10 q10 -11 15 -19 q6 -7 5 -12 q-2 -5 -8 -9 l-16 -4 q-6 -2 -16 -10 l-9 -7 q17 -5 27 -10 q10 -5 26 -15 q14 -11 25 -26 l13 -16 q12 -4 22 -7 q8 -3 14 -7 l15 -12 ZM415 504 l-138 -10 l9 -88 l128 8 l1 90 ZM460 420 l60 8 l26 4 q12 1 30 -6 l14 -5 l22 59 q6 18 6 28 q-1 8 -7 14 q-6 5 -14 6 q-9 2 -24 0 l-39 -5 l-72 -11 l-2 -92 Z" /><glyph glyph-name="uni8D25" unicode="&#x8d25;" d="M124 584 q13 0 40 -13 q22 -9 31 -18 q74 14 126 38 q41 17 51 17 q19 0 50 -20 q25 -20 25 -31 q0 -5 -8 -23 q-13 -30 -13 -109 q0 -197 -1 -221 q-4 -31 -17 -31 q-14 0 -25 13 q-11 21 -11 27 q0 30 2 75 q2 38 2 71 l0 142 q0 48 -25 48 q-12 0 -78 -13 q-55 -10 -76 -13 q-10 -48 -10 -84 l0 -212 q-1 -38 -5 -64 q-8 -23 -26 -23 q-9 0 -27 34 q-13 26 -13 43 q0 8 12 28 q11 46 11 96 l0 124 q0 38 -14 69 q-17 30 -17 34 q0 15 16 16 ZM307 148 q10 0 40 -14 q62 -32 80 -54 q12 -20 12 -35 q0 -36 -27 -36 q-16 0 -35 30 q-29 44 -51 70 q-23 28 -23 31 q0 8 4 8 ZM252 448 q9 0 40 -10 q27 -8 27 -21 q0 -8 -6 -22 q-4 -12 -9 -89 q-11 -158 -48 -219 q-39 -69 -105 -106 q-51 -28 -75 -28 q-13 0 -13 4 q0 3 36 23 q79 45 117 121 q40 77 40 207 q0 88 -16 119 q-4 10 -4 13 q0 8 16 8 ZM584 717 q8 0 40 -18 q40 -22 40 -35 q0 -6 -13 -27 q-12 -31 -50 -122 q-8 -23 -16 -40 q82 11 197 40 q24 6 41 6 q40 -2 40 -25 q0 -15 -15 -19 q-94 -15 -147 -24 q8 -4 17 -8 q39 -23 38 -37 q2 -5 -6 -18 q-8 -19 -31 -130 q-13 -58 -34 -105 q31 -37 65 -69 q71 -69 189 -92 q48 -12 48 -22 q0 -7 -61 -16 q-62 -12 -122 -12 q-24 0 -51 8 q-32 8 -71 83 l-32 56 q-33 -47 -75 -80 q-106 -79 -184 -79 q-7 0 -15 4 q0 10 57 30 q124 59 191 175 q-33 63 -59 120 q-31 75 -45 91 l0 -1 q-51 -86 -73 -86 q-8 0 -8 3 q0 7 18 37 q52 93 89 211 q29 87 29 152 q0 18 -4 36 q0 13 13 13 ZM535 375 q2 -1 3 -2 q14 -5 44 -69 q32 -56 68 -105 q22 67 22 153 q1 58 -6 80 q-4 11 -6 15 q-27 -3 -36 -3 q-23 0 -49 9 q-20 -45 -40 -78 Z" /><glyph glyph-name="uni8ECA" unicode="&#x8eca;" d="M524 236 l-2 -86 q33 2 50 4 l50 5 q80 7 110 10 q29 3 57 7 l29 4 l38 7 q11 -1 27 -7 q15 -6 29 -14 q14 -9 22 -20 q9 -10 8 -17 q-2 -7 -19 -10 q-17 -3 -37 -3 l-42 2 l-61 0 l-80 0 q-35 -1 -89 -4 q-54 -3 -66 -4 l-28 -2 l0 -46 q-2 -32 -4 -70 q-2 -38 -4 -51 q-1 -13 -5 -37 q-5 -24 -7 -38 q-2 -14 -9 -28 q-7 -14 -13 -12 q-5 0 -8 14 q-3 14 -4 27 q-1 14 -2 31 q0 17 -1 56 q-1 38 -1 57 l2 93 q-12 -2 -41 -3 q-29 -2 -72 -7 q-43 -5 -67 -9 q-24 -4 -50 -10 q-27 -7 -45 -13 q-19 -6 -25 -6 q-6 0 -18 3 q-11 3 -19 7 q-8 4 -23 14 q-16 9 -20 18 q-4 8 -2 12 q2 4 16 5 l18 1 l55 2 q17 1 48 4 q31 4 86 8 q54 4 105 10 l54 4 l2 88 q-18 -2 -30 -2 q-12 -1 -63 -3 l-25 -1 l-5 -12 q-2 -5 -7 -7 q-4 -3 -9 -1 q-5 2 -10 10 q-5 7 -7 17 q-2 11 -5 33 l-17 126 q-4 28 -8 38 q-4 10 -9 21 q-6 11 -13 17 q-6 6 -6 10 q0 4 4 7 q4 3 12 2 l22 -3 l26 -3 q48 3 69 5 q21 2 56 7 l29 4 l2 87 q-19 -2 -39 -5 q-19 -3 -51 -5 q-31 -2 -54 1 q-16 1 -28 7 q-12 4 -16 12 q-5 7 -4 10 q2 2 8 4 l10 1 q10 1 44 4 q34 3 36 3 l60 10 l35 4 l0 26 q-1 10 -1 27 q-2 18 -4 31 q-2 12 -6 22 l-4 12 q-2 5 -2 11 q0 5 3 9 q4 2 10 3 q9 1 21 -4 q12 -4 22 -8 q9 -4 20 -10 q11 -7 16 -13 q4 -7 4 -12 q0 -4 -5 -12 q-4 -10 -7 -27 q-4 -18 -4 -20 l-2 -26 q22 3 32 5 l34 6 q26 4 43 8 q17 6 22 6 q10 0 24 -4 q15 -4 24 -7 q9 -4 16 -9 q7 -4 7 -10 q0 -6 -10 -11 q-9 -6 -24 -8 l-32 -5 q-11 -2 -51 -7 q-41 -4 -68 -8 l-19 -3 l-1 -12 l-1 -73 l51 7 q19 3 42 9 q23 7 39 13 q16 6 21 6 q9 1 23 -4 q14 -4 36 -16 q22 -11 32 -23 q11 -12 12 -18 q2 -7 -18 -31 q-6 -8 -12 -20 q-5 -11 -9 -25 l-36 -125 q-11 -38 -22 -51 q-11 -12 -21 -12 q-11 -1 -16 5 q-5 4 -6 8 l-10 16 l-112 -10 ZM526 355 l-2 -81 q16 2 25 3 q9 1 24 3 q15 1 32 1 q17 1 25 -3 l14 -6 q12 46 19 70 q7 24 9 32 l2 12 q-15 -7 -25 -10 q-9 -4 -55 -11 q-46 -7 -48 -7 l-20 -3 ZM468 348 q-24 -2 -46 -5 q-20 -2 -34 -3 q-14 -2 -18 -1 l-28 3 q2 -30 2 -34 l4 -52 l84 8 l34 4 l2 80 ZM527 396 l43 10 l42 11 q8 0 20 -3 q12 -2 15 -4 l28 -16 l7 53 q2 9 2 18 q0 9 -4 17 q-2 4 -6 6 q-4 2 -14 1 q-10 0 -26 -1 l-16 -2 q-42 -4 -48 -5 l-42 -7 l-1 -78 ZM468 386 l2 80 q-8 -2 -35 -5 q-27 -4 -35 -4 l-70 -5 q4 -39 6 -49 l2 -31 q20 2 46 5 q26 3 46 5 q20 2 26 2 l12 2 Z" /><glyph glyph-name="uni8FDB" unicode="&#x8fdb;" d="M223 649 q33 -2 61 -13 q34 -14 50 -45 q9 -21 9 -42 q0 -32 -24 -32 q-31 0 -77 63 q-38 59 -38 65 q0 4 19 4 ZM263 425 q10 0 45 -24 q32 -26 32 -37 q0 -3 -19 -22 q-36 -37 -53 -74 q-9 -30 -9 -47 q0 -7 16 -44 q17 -42 17 -69 q0 -13 -4 -36 q28 -4 137 -40 q216 -71 291 -71 q125 0 208 11 q38 8 48 8 q11 0 11 -8 q0 -14 -84 -51 q-113 -48 -159 -48 q-37 0 -194 67 q-214 93 -275 93 q-51 0 -111 -17 q-38 -11 -48 -11 q-9 0 -37 20 q-24 17 -24 24 q0 8 95 16 q65 5 109 7 q-4 64 -31 110 q-12 26 -12 39 q0 54 27 109 q13 21 13 26 q0 8 -4 8 q-60 -18 -74 -26 q-11 -5 -18 -5 q-12 0 -28 8 q-20 12 -20 15 q0 9 20 12 q25 2 59 17 q40 15 56 28 q14 12 20 12 ZM655 740 q21 0 45 -15 q35 -25 35 -36 q-8 -35 -8 -44 l0 -91 q5 2 9 3 q36 11 51 11 q62 -1 65 -19 q-1 -13 -14 -19 q-27 -10 -51 -13 q-32 -5 -60 -9 l0 -133 l58 10 q36 8 70 8 q25 0 45 -11 q20 -12 20 -26 q0 -15 -24 -15 q-92 -2 -169 -8 l0 -68 q0 -129 -10 -198 q-16 -55 -30 -55 q-11 0 -15 48 l0 267 q-75 -9 -132 -17 q-19 -97 -57 -137 q-56 -61 -107 -61 q-12 0 -12 5 q0 3 22 17 q63 35 92 104 q11 27 18 66 q-13 -2 -23 -3 q-43 -8 -61 -8 q-25 1 -50 13 q-13 5 -15 10 q1 12 25 12 q61 3 118 11 q7 1 11 1 q8 57 10 135 q-32 -6 -51 -6 q-22 0 -46 9 q-23 7 -23 14 q0 7 12 9 q60 7 109 13 q0 22 0 47 q0 48 -24 76 q-9 14 -9 19 q0 8 17 8 q17 0 48 -10 q31 -12 31 -25 q0 -5 -2 -15 q-6 -12 -12 -93 q66 9 111 19 l0 66 q-4 60 -20 99 q-9 21 -9 24 q0 11 12 11 ZM558 481 q-3 -77 -12 -135 q59 8 126 19 l0 133 q-71 -11 -114 -17 Z" /><glyph glyph-name=".notdef" unicode="&#x95f4;" d="M351 469 q11 0 34 -9 q10 -2 16 -10 q30 4 83 17 q67 16 81 24 q9 5 15 5 q15 0 44 -15 q35 -19 35 -33 q0 -6 -7 -22 q-12 -38 -12 -114 q2 -154 -14 -200 q-20 -56 -34 -56 q-5 0 -12 20 q-9 21 -27 59 q-67 -5 -129 -10 q-4 0 -8 1 q-1 -41 -17 -41 q-8 0 -24 21 q-11 17 -11 27 q0 15 10 76 q3 46 3 68 q0 111 -23 160 q-7 15 -7 19 q0 13 4 13 ZM416 160 q110 17 115 17 q20 0 34 -7 q6 -3 8 -5 q8 10 11 42 q2 28 3 79 q-1 -1 -3 -2 q-115 -19 -132 -19 q-18 0 -36 5 l0 -110 ZM416 295 q50 8 118 25 q15 4 25 4 q21 -1 29 -6 l0 63 q0 59 -36 59 q-97 -13 -114 -16 q-12 -3 -18 -3 l-5 0 q1 -3 1 -4 l0 -122 ZM743 692 q20 0 52 -18 q36 -24 36 -41 q0 -10 -8 -29 q-15 -31 -15 -87 q0 -206 7 -419 q0 -102 -19 -157 q-28 -80 -57 -80 q-10 0 -25 20 q-28 40 -93 114 q-6 5 -6 10 q0 7 13 7 q11 0 38 -11 q41 -21 54 -21 q14 0 23 26 q9 29 9 511 q0 75 -8 99 q-5 17 -20 17 q-27 0 -138 -16 q-100 -16 -115 -16 q-15 1 -35 13 q-16 10 -16 19 q0 7 11 8 q99 2 161 11 q56 9 114 31 q28 9 37 9 ZM191 553 q22 -3 41 -13 q39 -17 39 -31 q-1 -14 -7 -35 q-8 -38 -8 -123 q-2 -383 -15 -423 q-14 -44 -29 -44 q-8 0 -22 35 q-7 22 -7 42 q0 10 8 40 q21 102 21 350 q0 135 -23 173 q-6 9 -6 16 q0 12 8 13 ZM244 696 q29 0 60 -8 q27 -11 43 -35 q12 -23 12 -60 q0 -17 -16 -17 q-29 0 -77 62 q-39 55 -39 58 l17 0 Z" /><glyph glyph-name=".notdef" unicode="&#x99ac;" d="M545 628 q14 -9 16 -15 q2 -5 -3 -19 q-5 -14 -5 -22 l-4 -31 l75 15 l27 6 q10 0 29 -5 l19 -5 q12 -4 18 -10 q7 -6 6 -10 q-1 -4 -7 -8 q-5 -3 -14 -4 l-22 -4 l-53 -7 l-76 -9 l-4 -71 l72 11 q4 1 18 4 q14 2 22 3 q12 0 26 -3 q14 -4 26 -8 q11 -5 15 -9 q5 -5 5 -8 q-1 -5 -14 -10 q-14 -5 -22 -6 l-152 -18 l-2 -79 l154 14 q22 1 46 4 q24 4 39 8 q14 4 19 4 q11 0 32 -10 l32 -16 q19 -9 27 -18 q9 -9 8 -17 q-1 -5 -10 -17 q-9 -14 -15 -34 q-5 -21 -7 -45 l-11 -103 q-3 -31 -11 -64 q-9 -34 -23 -64 q-16 -30 -32 -48 q-17 -18 -42 -34 q-26 -17 -36 -8 q-2 2 -9 18 q-7 16 -11 23 q-4 7 -23 32 q-18 25 -21 30 l-13 14 q-6 7 -1 10 q4 4 10 1 l22 -9 l38 -13 q16 -6 24 -6 q10 2 22 14 q12 12 21 35 q9 23 14 46 q5 23 9 44 l14 111 l0 32 q1 26 -4 33 q-6 8 -36 9 q-24 0 -74 -2 q-50 -2 -96 -6 q-45 -3 -96 -10 q-50 -6 -76 -11 q-26 -5 -50 -13 q-24 -6 -39 -14 q-14 -8 -19 -8 q-8 -1 -16 4 q-7 5 -15 20 q-8 14 -11 20 q-2 7 -2 13 q0 3 10 18 q9 16 14 50 q4 35 6 55 q2 20 5 81 q3 61 3 81 q-2 18 -4 39 q-4 21 -8 29 l-10 16 q-4 12 0 15 q4 4 12 5 q14 0 33 -8 l29 -12 l124 16 q24 3 83 13 l75 14 l28 7 q13 2 20 2 q6 0 20 -5 q14 -5 22 -11 q9 -6 9 -10 q1 -4 -2 -8 q-3 -3 -15 -6 l-18 -4 q-14 -2 -98 -15 l-66 -9 ZM487 298 l1 79 l-69 -7 q-33 -3 -40 -2 q-8 0 -20 4 l-14 4 l-4 -70 q-2 -25 2 -28 q4 -2 24 1 l120 19 ZM347 405 l141 16 l0 69 l-113 -6 l-22 5 l-6 -84 ZM355 518 l132 15 l0 28 q0 13 -2 27 q-3 14 -6 19 l-6 12 q-22 -1 -46 -3 q-25 -2 -36 0 l-20 1 q-5 -9 -7 -15 q-1 -6 -3 -28 l-6 -56 ZM453 150 l-8 18 q-4 6 -1 10 q3 4 9 3 l22 -4 q11 -3 33 -11 q22 -10 30 -20 q9 -12 11 -33 q2 -21 -8 -32 q-11 -11 -18 -11 q-8 0 -18 10 q-12 9 -23 27 l-17 25 q-10 14 -12 18 ZM599 173 l-12 16 q-5 5 -2 9 q2 4 8 4 l24 -6 q9 -2 21 -5 q11 -3 24 -7 q13 -4 25 -10 q12 -5 19 -12 q6 -6 9 -19 q4 -13 0 -30 q-4 -15 -12 -21 q-6 -6 -14 -7 q-8 -1 -22 11 q-8 6 -20 21 l-26 29 q-16 18 -22 27 ZM199 186 l6 -12 q4 -12 6 -24 q2 -12 2 -34 q0 -20 -4 -40 q-4 -18 -13 -43 q-10 -25 -21 -40 q-12 -15 -23 -13 q-8 0 -15 8 q-6 8 -9 24 q-3 14 -3 25 q0 11 2 18 q2 7 9 17 l13 22 q7 12 14 26 q6 14 10 22 l4 20 l6 20 q2 8 7 10 q6 2 9 -6 ZM293 154 q-3 10 -1 11 q2 1 11 0 l12 -3 q6 -1 22 -8 q16 -7 30 -17 q14 -9 19 -21 q4 -10 4 -27 q1 -17 -5 -26 q-6 -10 -16 -11 q-9 0 -19 8 q-9 8 -19 24 l-16 30 q-14 24 -15 25 l-7 15 Z" /></font>
</defs>
</svg>
